<svg xmlns="http://www.w3.org/2000/svg" width="397" height="397" viewBox="0 0 397 397" fill="none"><path d="M199.308 221.2C174.414 221.2 154.077 241.559 154.077 266.464C154.077 280.316 160.488 292.613 170.36 300.936C157.339 306.208 146.072 314.921 137.632 326.04C134.122 323.235 130.366 320.784 126.324 318.867C132.223 312.743 135.92 304.561 135.92 295.476C135.92 276.589 120.171 261.262 101.156 261.262C82.1417 261.262 66.3282 276.589 66.3282 295.476C66.3282 304.609 70.0897 312.831 76.0529 318.964C59.2165 326.964 46.6182 342.57 43.7773 361.805L42.3557 371.303H356.195L354.806 361.805C351.966 342.578 339.389 326.967 322.562 318.964C328.509 312.832 332.255 304.602 332.255 295.476C332.255 276.589 316.474 261.262 297.459 261.262C278.445 261.262 262.664 276.589 262.664 295.476C262.664 304.553 266.36 312.745 272.259 318.867C268.206 320.788 264.437 323.228 260.919 326.04C252.486 314.939 241.258 306.206 228.256 300.936C238.128 292.613 244.571 280.316 244.571 266.464C244.571 241.559 224.202 221.2 199.308 221.2ZM199.308 237.71C215.254 237.71 227.997 250.491 227.997 266.464C227.997 282.437 215.254 295.186 199.308 295.186C183.361 295.186 170.586 282.437 170.586 266.464C170.586 250.491 183.361 237.71 199.308 237.71ZM101.156 277.836C111.435 277.836 119.41 285.737 119.41 295.476C119.41 305.215 111.435 313.117 101.156 313.117C90.8774 313.117 82.9022 305.215 82.9022 295.476C82.9022 285.737 90.8774 277.836 101.156 277.836ZM297.459 277.836C307.738 277.836 315.713 285.737 315.713 295.476C315.713 305.215 307.738 313.117 297.459 313.117C287.18 313.117 279.238 305.215 279.238 295.476C279.238 285.737 287.18 277.836 297.459 277.836ZM199.308 311.76C225.857 311.769 246.261 330.258 254.522 354.632H144.061C152.33 330.255 172.752 311.754 199.308 311.76ZM101.156 329.658C111.657 329.662 121.515 333.724 129.103 340.546C127.028 345.055 125.416 349.782 124.224 354.729H65.4236C71.9308 340.579 84.3888 329.655 101.156 329.658ZM297.459 329.658C314.215 329.664 326.654 340.59 333.159 354.729H274.359C273.168 349.784 271.554 345.053 269.481 340.546C277.077 333.721 286.954 329.656 297.459 329.658Z" fill="black"></path><path d="M22.6156 25.6949C22.6156 69.5241 22.6156 113.353 22.6156 157.183C68.7971 157.183 114.979 157.183 161.16 157.183C173.573 172.322 185.985 187.461 198.398 202.6C211.25 187.461 224.102 172.322 236.954 157.183C282.764 157.183 328.574 157.183 374.383 157.183C374.383 113.353 374.383 69.5241 374.383 25.6949C257.127 25.6949 139.872 25.6949 22.6156 25.6949ZM39.1734 42.2196C145.391 42.2196 251.608 42.2196 357.826 42.2196C357.826 75.0324 357.826 107.845 357.826 140.658C314.989 140.658 272.153 140.658 229.317 140.658C219.078 152.699 208.84 164.741 198.601 176.782C188.734 164.741 178.867 152.699 169 140.658C125.724 140.658 82.4488 140.658 39.1734 140.658C39.1734 107.845 39.1734 75.0324 39.1734 42.2196Z" fill="black"></path><path d="M77.9066 64.7411C77.9066 70.6436 77.9066 76.546 77.9066 82.4485C158.302 82.4485 238.697 82.4485 319.092 82.4485C319.092 76.546 319.092 70.6436 319.092 64.7411C238.697 64.7411 158.302 64.7411 77.9066 64.7411Z" fill="black"></path><path d="M77.9066 99.2439C77.9066 105.158 77.9066 111.071 77.9066 116.985C136.978 116.985 196.049 116.985 255.121 116.985C255.121 111.071 255.121 105.158 255.121 99.2439C196.049 99.2439 136.978 99.2439 77.9066 99.2439Z" fill="black"></path></svg>