<svg xmlns="http://www.w3.org/2000/svg" width="382" height="382" viewBox="0 0 382 382" fill="none"><g clip-path="url(#clip0_92_32)"><path d="M362.783 185.335C355.203 168.623 336.76 158.953 317.958 161.759L275.58 168.086L310.079 142.599C325.359 131.258 331.567 111.382 325.121 94.3119L319.212 78.5544C318.615 76.9428 317.361 75.6894 315.69 75.0328L299.933 69.1238C282.802 62.6775 262.926 68.885 251.586 84.165L226.099 118.664L232.426 76.2863C235.291 57.425 225.562 39.0413 208.849 31.4609L193.569 24.5372C192.018 23.8209 190.227 23.8209 188.615 24.5372L173.335 31.4609C156.623 39.0413 146.953 57.425 149.759 76.2863L156.086 118.664L130.599 84.165C119.258 68.885 99.3825 62.6775 82.3119 69.1238L66.5544 75.0328C64.9428 75.6297 63.6894 76.8831 63.0328 78.5544L57.1237 94.3119C50.6775 111.442 56.885 131.318 72.165 142.659L106.664 168.145L64.2863 161.818C45.425 158.953 27.0413 168.683 19.4609 185.395L12.5372 200.675C11.8209 202.227 11.8209 204.018 12.5372 205.629L19.4609 220.909C26.1459 235.712 41.3066 244.963 57.7206 244.963C59.8694 244.963 62.0778 244.784 64.2863 244.486L106.664 238.159L72.165 263.645C56.885 274.986 50.6775 294.862 57.1237 311.933L63.0328 327.69C63.6297 329.302 64.8831 330.555 66.5544 331.212L82.3119 337.121C86.8481 338.852 91.5634 339.628 96.2788 339.628C109.35 339.628 122.303 333.301 130.659 322.079L156.145 287.58L149.818 329.958C146.953 348.819 156.683 367.203 173.395 374.783L188.675 381.707C189.451 382.065 190.287 382.244 191.122 382.244C191.958 382.244 192.793 382.065 193.569 381.707L208.849 374.783C225.562 367.203 235.231 348.819 232.426 329.958L226.099 287.58L251.586 322.079C259.942 333.301 272.894 339.628 285.966 339.628C290.681 339.628 295.396 338.792 299.933 337.121L315.69 331.212C317.302 330.615 318.555 329.361 319.212 327.69L325.121 311.933C331.567 294.802 325.359 274.926 310.079 263.586L275.58 238.099L317.958 244.426C320.167 244.784 322.315 244.903 324.524 244.903C340.938 244.903 356.098 235.592 362.783 220.849L369.707 205.569C370.423 204.017 370.423 202.227 369.707 200.615L362.783 185.335ZM222.398 143.852L261.255 91.3275C269.432 80.2853 283.638 75.8087 295.814 80.345L309.005 85.2991L313.959 98.49C318.495 110.666 313.959 124.872 302.977 132.989L250.392 171.846L244.304 172.741C252.183 160.863 263.762 141.584 268.059 134.362C269.432 132.034 269.074 128.99 267.164 127.08C265.254 125.17 262.21 124.753 259.882 126.185C252.66 130.483 233.321 142.062 221.503 149.941L222.398 143.852ZM216.728 207.181C218.399 208.972 222.398 212.911 227.054 216.134V217.925L225.801 219.178C220.25 218.163 214.639 218.163 212.192 218.223C209.028 218.283 206.462 220.849 206.402 224.013C206.342 226.46 206.402 232.071 207.357 237.622L206.104 238.875H204.313C201.09 234.219 197.151 230.28 195.36 228.549C193.032 226.341 189.451 226.341 187.123 228.549C185.333 230.22 181.393 234.219 178.17 238.875H176.379L175.126 237.622C176.141 232.071 176.141 226.46 176.081 224.013C176.021 220.849 173.455 218.283 170.291 218.223C167.844 218.163 162.233 218.223 156.682 219.178L155.429 217.925V216.134C160.085 212.911 164.024 208.972 165.755 207.181C167.963 204.853 167.963 201.272 165.755 198.944C164.084 197.153 160.085 193.214 155.429 189.991V188.2L156.682 186.947C161.099 187.723 165.516 187.902 168.381 187.902C169.157 187.902 169.814 187.902 170.291 187.902C173.455 187.842 176.021 185.276 176.081 182.112C176.141 179.665 176.081 174.054 175.126 168.503L176.379 167.25H178.17C181.393 171.906 185.333 175.845 187.123 177.576C188.257 178.65 189.749 179.188 191.242 179.188C192.734 179.188 194.226 178.65 195.36 177.576C197.151 175.905 201.09 171.906 204.313 167.25H206.104L207.357 168.503C206.342 174.054 206.342 179.665 206.402 182.112C206.462 185.276 209.028 187.842 212.192 187.902C212.729 187.902 213.326 187.902 214.102 187.902C216.967 187.902 221.443 187.723 225.801 186.947L227.054 188.2V189.991C222.398 193.214 218.459 197.153 216.728 198.944C214.52 201.272 214.52 204.853 216.728 207.181ZM178.349 42.3241L191.182 36.5344L204.015 42.3241C215.893 47.6959 222.757 60.8869 220.667 74.4956L208.909 153.164C207.656 142.897 199.598 110.487 196.972 100.102C196.315 97.4753 193.928 95.625 191.182 95.625C188.436 95.625 186.049 97.4753 185.392 100.102C182.766 110.487 174.648 142.897 173.455 153.164L161.696 74.4956C159.667 60.9466 166.471 47.6959 178.349 42.3241ZM79.4469 133.049C68.4047 124.872 63.9281 110.666 68.4644 98.49L73.4184 85.2991L86.6094 80.345C98.7856 75.7491 112.991 80.345 121.109 91.3275L159.965 143.912L160.861 150C148.983 142.122 129.704 130.542 122.482 126.245C120.154 124.872 117.11 125.23 115.2 127.14C113.29 129.05 112.872 132.094 114.304 134.422C118.602 141.644 130.181 160.983 138.06 172.801L131.972 171.906L79.4469 133.049ZM62.6747 232.608C49.0659 234.637 35.875 227.773 30.5031 215.955L24.7134 203.122L30.5031 190.289C35.875 178.412 49.1256 171.547 62.6747 173.637L141.343 185.395C131.077 186.648 98.6663 194.706 88.2806 197.333C85.6544 197.989 83.8041 200.377 83.8041 203.122C83.8041 205.868 85.6544 208.255 88.2806 208.912C98.6663 211.538 131.077 219.656 141.343 220.849L62.6747 232.608ZM160.025 262.332L121.168 314.857C112.991 325.899 98.7856 330.376 86.6094 325.84L73.4184 320.886L68.4644 307.695C63.9281 295.518 68.4644 281.313 79.4469 273.195L132.032 234.339L138.12 233.443C130.241 245.321 118.662 264.6 114.364 271.823C112.991 274.15 113.349 277.194 115.259 279.104C116.393 280.238 117.945 280.835 119.497 280.835C120.572 280.835 121.586 280.537 122.541 280C129.763 275.702 149.102 264.123 160.92 256.244L160.025 262.332ZM204.015 363.861L191.182 369.65L178.349 363.861C166.471 358.489 159.607 345.298 161.696 331.689L173.455 253.021C174.708 263.287 182.766 295.697 185.392 306.083C186.049 308.709 188.436 310.56 191.182 310.56C193.928 310.56 196.315 308.709 196.972 306.083C199.598 295.697 207.715 263.287 208.909 253.021L220.667 331.689C222.697 345.238 215.893 358.489 204.015 363.861ZM302.977 273.136C314.019 281.313 318.495 295.518 313.959 307.695L309.005 320.886L295.814 325.84C283.638 330.376 269.432 325.84 261.315 314.857L222.458 262.272L221.563 256.184C233.441 264.063 252.72 275.643 259.942 279.94C260.897 280.477 261.971 280.776 262.986 280.776C264.538 280.776 266.03 280.179 267.224 279.045C269.134 277.135 269.552 274.091 268.119 271.763C263.822 264.541 252.242 245.202 244.363 233.384L250.452 234.279L302.977 273.136ZM351.92 215.895C346.548 227.773 333.298 234.637 319.749 232.548L241.081 220.79C251.347 219.536 283.757 211.478 294.143 208.852C296.769 208.196 298.619 205.808 298.619 203.062C298.619 200.317 296.769 197.929 294.143 197.273C283.757 194.647 251.347 186.529 241.081 185.335L319.749 173.577C333.298 171.547 346.548 178.352 351.92 190.23L357.71 203.062L351.92 215.895Z" fill="black"></path></g><defs><clipPath id="clip0_92_32"><rect width="382" height="382" fill="white"></rect></clipPath></defs></svg>