<svg xmlns="http://www.w3.org/2000/svg" width="457" height="457" viewBox="0 0 457 457" fill="none"><path d="M448.924 120.263H448.517C440.691 120.313 439.477 113.515 439.341 110.359V60.9956C439.341 55.7258 435.071 51.4557 429.816 51.4557H288.681C253.271 51.4557 240.061 64.5802 236.783 68.7003L235.884 69.9499L235.876 69.9713L233.084 73.7987C229.336 78.9471 226.065 76.7549 224.494 75.0697L219.153 68.4075L216.511 65.2228C212.07 60.56 200.495 51.4557 177.552 51.4557H27.1917C21.9219 51.4557 17.6518 55.7258 17.6518 60.9956V109.73C17.6518 118.263 13.0176 119.977 10.1756 120.263H8.06197C5.74841 120.406 0.36438 121.748 0.36438 131.652V363.929C0.36438 369.628 4.98436 374.24 10.6826 374.24H147.911C191.69 374.24 210.77 390.75 216.49 397.083L219.753 401.125C219.753 401.125 228.514 411.029 237.74 401.125L239.654 398.883L239.682 398.869L242.125 396.012C242.196 395.927 242.781 395.27 243.631 394.398C250.936 387.294 269.195 374.24 304.898 374.24H446.318C452.023 374.24 456.636 369.628 456.636 363.929V129.403C456.636 121.005 450.559 120.306 448.924 120.263ZM418.091 327.484C418.091 332.061 414.271 335.753 409.515 335.753H293.159C251.75 335.753 236.719 354.461 236.719 354.461L234.813 357.017L233.92 358.253C229.971 363.615 224.159 358.295 224.13 358.267L221.452 354.918C219.467 352.533 204.258 335.745 167.448 335.745H47.4854C42.7511 335.745 38.9238 332.047 38.9238 327.477V79.9682C38.9238 75.3982 42.7511 71.6994 47.4854 71.6994H140.621C209.899 71.6994 216.461 111.051 216.911 122.483V294.615C216.911 307.126 222.873 309.475 226.237 309.818H231.242C234.67 309.475 240.118 307.44 240.118 297.679V120.263H240.061C240.575 105.946 246.159 71.6922 287.825 71.6922H409.515C414.271 71.6922 418.091 75.3911 418.091 79.9611V327.484Z" fill="#241F20"></path></svg>