<svg xmlns="http://www.w3.org/2000/svg" width="390" height="390" viewBox="0 0 390 390" fill="none"><g clip-path="url(#clip0_92_12)"><path d="M388.574 162.691L388.41 162.313L388.501 162.24L387.294 159.937L322.579 36.7149C320.812 33.4974 314.663 24.0521 302.835 24.0521H86.0377C72.8387 24.0521 66.233 37.0562 66.0868 37.3609L2.52896 158.377L2.50459 158.431L2.05365 159.285C0.987246 161.393 -1.37713 167.121 0.968964 172.776C17.1174 198.992 45.9043 216.578 78.9507 216.578C111.26 216.578 139.443 199.729 155.775 174.482C158.273 168.748 154.793 161.564 154.793 161.564L94.6604 47.0499L94.0754 45.9409C93.2649 44.0762 92.5458 40.5235 98.993 40.5235H177.834C180.07 40.5967 186.304 41.7057 186.304 52.1443V323.426C186.158 326.113 185.14 331.555 179.552 335.004L140.083 359.416C140.083 359.416 129.73 365.948 140.083 365.948H252.08C259.716 365.948 252.08 360.653 252.08 360.653L211.423 335.766C211.404 335.754 211.404 335.741 211.386 335.729C204.701 331.634 203.452 326.479 203.269 323.877V50.9865C203.269 41.5534 210.033 40.5784 212.41 40.5235H289.502C291.519 40.5601 297.668 41.2304 293.798 48.6343L233.427 163.55C233.427 163.55 231.538 168.072 233.665 173.032C249.832 199.101 278.509 216.578 311.452 216.578C344.449 216.578 373.23 199.065 389.378 172.91C390.993 168.693 389.177 164.013 388.574 162.691ZM135.269 159.071L135.275 159.077L136.104 160.668C137.384 163.313 139.315 168.346 135.275 168.346L20.664 168.334C16.8615 168.334 17.6171 164.854 18.8297 162.045L20.6457 158.596L20.664 158.566L75.3005 54.5331C75.3005 54.5331 78.0915 50.2187 80.3583 54.5331L135.269 159.071ZM253.366 160.333L254.176 158.791C254.176 158.785 254.207 158.73 254.207 158.73L307.625 57.0193C307.698 56.9096 311.324 50.0115 315.016 57.0376L368.276 158.431C369.379 160.613 372.749 168.358 364.845 168.358L258.479 168.34C258.46 168.34 258.46 168.34 258.46 168.34C250.709 168.334 252.111 163.057 253.366 160.333Z" fill="#241F20"></path></g><defs><clipPath id="clip0_92_12"><rect width="390" height="390" fill="white"></rect></clipPath></defs></svg>