<svg xmlns="http://www.w3.org/2000/svg" width="389" height="389" viewBox="0 0 389 389" fill="none"><g clip-path="url(#clip0_92_21)"><path d="M360.182 255.575L356.535 237.34H315.787L309.304 255.445L276.644 255.51C292.192 218.12 307.774 180.743 323.389 143.381C326.047 137.043 330.763 133.818 337.717 133.85C343.033 133.899 351.705 133.899 363.747 133.866L389 255.526L360.182 255.575ZM324.961 212.363H351.218L341.412 166.656L324.961 212.363ZM114.431 133.834L147.269 133.866L96.5044 255.591L63.2611 255.559C54.9017 223.406 46.6462 191.227 38.4948 159.022C36.874 152.603 33.6647 148.114 27.4893 145.99C21.9947 144.094 12.837 141.176 0 137.205V133.883H52.4664C61.543 133.883 66.8432 138.275 68.545 147.287C70.2631 156.315 74.5745 179.298 81.5117 216.237L114.431 133.834ZM192.393 133.866L166.427 255.559L135.178 255.526L161.111 133.834L192.393 133.866ZM255.768 131.614C265.12 131.614 276.903 134.531 283.678 137.205L278.2 162.442C272.073 159.978 261.992 156.655 253.515 156.769C241.196 156.98 233.578 162.15 233.578 167.11C233.578 175.182 246.804 179.25 260.419 188.067C275.963 198.116 278.005 207.144 277.811 216.95C277.6 237.308 260.419 257.39 224.177 257.39C207.645 257.147 201.68 255.753 188.195 250.972L193.9 224.633C207.629 230.387 213.448 232.219 225.182 232.219C235.929 232.219 245.151 227.875 245.232 220.306C245.297 214.924 241.99 212.25 229.931 205.605C217.872 198.943 200.951 189.72 201.178 171.21C201.453 147.514 223.902 131.614 255.784 131.614H255.768Z" fill="black"></path></g><defs><clipPath id="clip0_92_21"><rect width="389" height="389" fill="white"></rect></clipPath></defs></svg>